<svg xmlns="http://www.w3.org/2000/svg" viewBox="0 0 1440 320"><path fill="#322C2B" d="m0 192 9.6 21.3C19.2 235 38 277 58 272c18.8-5 38-59 57-96 19.4-37 39-59 58-37.3 19 21.3 38 85.3 57 96 19.6 10.3 39-31.7 58-48 19.2-15.7 38-5.7 58 5.3 18.8 11 38 21 57-5.3 19.4-26.7 39-90.7 58-85.4 19 5.7 38 79.7 57 96 19.6 15.7 39-26.3 58-58.6C595.2 107 614 85 634 96c18.8 11 38 53 57 42.7 19.4-10.7 39-74.7 58-69.4 19 5.7 38 79.7 57 96 19.6 15.7 39-26.3 58-58.6 19.2-31.7 38-53.7 58-16 18.8 37.3 38 133.3 57 176 19.4 42.3 39 32.3 58-16 19-47.7 38-133.7 57-133.4 19.6-.3 39 85.7 58 106.7 19.2 21 38-21 58-64 18.8-43 38-85 57-106.7 19.4-21.3 39-21.3 58 10.7s38 96 57 106.7c19.6 10.3 39-31.7 48-53.4l10-21.3V0H0Z"/></svg>