<svg width="1440" height="219" fill="none" xmlns="http://www.w3.org/2000/svg"><g clip-path="url(#a)"><path d="M1458 52.161c-102.67 0-24.76 166.839-94.74 166.839-69.98 0-7.06-146.243-62.96-146.243s-7.02 125.031-66.45 125.031c-59.43 0-3.76-178.535-68.91-179.095-48.61-.42-16.91 164.712-76.78 164.712-67.79 0-1.75-103.064-62.49-103.064-60.737 0-28.631 136.868-79.661 136.868S972.836 58.402 894.95 58.402c-77.887 0 8.339 144.032-67.36 144.032s-2.624-93.046-68.205-93.046c-51.293 0-32.805 45.725-70.655 45.725-64.939 0 .204-127.13-68.876-127.13s10.469 167.903-65.231 167.903c-75.699 0-5.686-138.967-64.152-138.967s-14.347 115.32-65.96 115.32c-64.152 0 3.733-136.448-63.714-136.448-69.489-.112 2.478 151.699-79.199 151.699-68.73 0-11.518-149.432-79.84-150.076-81.648-.811-2.245 163.285-80.598 163.285S98.823 25.353 34.73 25.353C2.1 25.353 0 64.838 0 64.838V0h1458v52.161Z" fill="#322C2B"/></g><defs><clipPath id="a"><path fill="#fff" d="M0 0h1458v219H0z"/></clipPath></defs></svg>